<?xml version="1.0" standalone="no"?><!DOCTYPE svg PUBLIC "-//W3C//DTD SVG 1.1//EN" "http://www.w3.org/Graphics/SVG/1.1/DTD/svg11.dtd"><svg t="1685779257950" class="icon" viewBox="0 0 1024 1024" version="1.1" xmlns="http://www.w3.org/2000/svg" p-id="1021" xmlns:xlink="http://www.w3.org/1999/xlink" width="64" height="64"><path d="M512 2C230.5 2 2 230.5 2 512s228.5 510 510 510 510-228.5 510-510S793.5 2 512 2z m292.2 377.9l-330 330c-15.3 15.3-38.3 17.3-56.1 7.1-3.1-2-6.1-4.1-9.2-7.1L219.3 520.2c-17.8-17.9-17.8-47.4 0-65.3s47.4-17.9 65.3 0l157 157.1L739 314.6c17.8-17.8 47.4-17.8 65.3 0 18.3 17.9 18.3 46.9-0.1 65.3z" fill="#22c55e" p-id="1022"></path></svg>