<?xml version="1.0" standalone="no"?><!DOCTYPE svg PUBLIC "-//W3C//DTD SVG 1.1//EN" "http://www.w3.org/Graphics/SVG/1.1/DTD/svg11.dtd"><svg t="1685779249003" class="icon" viewBox="0 0 1024 1024" version="1.1" xmlns="http://www.w3.org/2000/svg" p-id="6181" xmlns:xlink="http://www.w3.org/1999/xlink" width="64" height="64"><path d="M512 2C235.1 2 2 235.1 2 512s233.1 510 510 510 510-233.1 510-510S788.9 2 512 2z m218.8 655.9c21.9 21.9 21.9 51 0 65.8-21.9 21.9-51 21.9-65.8 0L519.1 577.8l-153 153c-21.9 21.9-51 21.9-72.9 0s-21.9-58.1 0-72.9l153-153L300.9 359c-21.9-14.8-21.9-43.9 0-65.8s51-21.9 65.8 0L512 439.1l153-153c21.9-21.9 51-21.9 72.9 0s21.9 51 0 72.9l-153 153 145.9 145.9z" fill="#d81e06" p-id="6182"></path></svg>